<svg width="24" height="25" viewBox="0 0 24 25" fill="none" xmlns="http://www.w3.org/2000/svg">
<path d="M12 5C16.1421 5 19.5 8.35786 19.5 12.5C19.5 16.6421 16.1421 20 12 20C7.85786 20 4.5 16.6421 4.5 12.5C4.5 12.1236 4.52772 11.7538 4.58123 11.3923C4.64845 10.9382 4.31609 10.5 3.85708 10.5C3.48623 10.5 3.161 10.7562 3.10471 11.1228C3.03576 11.5718 3 12.0317 3 12.5C3 17.4706 7.02944 21.5 12 21.5C16.9706 21.5 21 17.4706 21 12.5C21 7.52944 16.9706 3.5 12 3.5C9.69494 3.5 7.59227 4.36656 6 5.79168V4.75C6 4.33579 5.66421 4 5.25 4C4.83579 4 4.5 4.33579 4.5 4.75V7.75C4.5 8.16421 4.83579 8.5 5.25 8.5H8.25C8.66421 8.5 9 8.16421 9 7.75C9 7.33579 8.66421 7 8.25 7H6.90093C8.23907 5.75883 10.0309 5 12 5Z" fill="white"/>
</svg>
