<svg width="56" height="56" viewBox="0 0 56 56" fill="none" xmlns="http://www.w3.org/2000/svg">
<path d="M22.75 10.5H33.25C34.2165 10.5 35 11.2835 35 12.25V17.5H21V12.25C21 11.2835 21.7835 10.5 22.75 10.5ZM17.5 12.25V17.5H14C10.134 17.5 7 20.634 7 24.5V42C7 45.866 10.134 49 14 49H42C45.866 49 49 45.866 49 42V24.5C49 20.634 45.866 17.5 42 17.5H38.5V12.25C38.5 9.35051 36.1495 7 33.25 7H22.75C19.8505 7 17.5 9.3505 17.5 12.25ZM42 21C43.933 21 45.5 22.567 45.5 24.5V42C45.5 43.933 43.933 45.5 42 45.5H14C12.067 45.5 10.5 43.933 10.5 42V24.5C10.5 22.567 12.067 21 14 21H42ZM29.75 28C29.75 27.0335 28.9665 26.25 28 26.25C27.0335 26.25 26.25 27.0335 26.25 28V31.5H22.75C21.7835 31.5 21 32.2835 21 33.25C21 34.2165 21.7835 35 22.75 35H26.25V38.5C26.25 39.4665 27.0335 40.25 28 40.25C28.9665 40.25 29.75 39.4665 29.75 38.5V35H33.25C34.2165 35 35 34.2165 35 33.25C35 32.2835 34.2165 31.5 33.25 31.5H29.75V28Z" fill="#F3F5F6"/>
</svg>
