<svg width="32" height="32" viewBox="0 0 32 32" fill="none" xmlns="http://www.w3.org/2000/svg">
<path fill-rule="evenodd" clip-rule="evenodd" d="M25.3333 22.6667L28 25.3333V26.6667H4V25.3333L6.66667 22.6667V14.6667C6.66667 10.2 9.81333 6.46667 14 5.56V4C14 2.89333 14.8933 2 16 2C17.1067 2 18 2.89333 18 4V5.56C22.1867 6.46667 25.3333 10.2 25.3333 14.6667V22.6667ZM18.6533 28.0133C18.6533 29.48 17.4667 30.6667 16 30.6667C14.5333 30.6667 13.3467 29.48 13.3467 28.0133H18.6533ZM14.6667 21.3333V18.6667H17.3333V21.3333H14.6667ZM14.6667 10.6667V16H17.3333V10.6667H14.6667Z" fill="white"/>
</svg>
