<svg width="24" height="24" viewBox="0 0 24 24" fill="none" xmlns="http://www.w3.org/2000/svg">
<path d="M12 12.75C12.4142 12.75 12.75 12.4142 12.75 12C12.75 11.5858 12.4142 11.25 12 11.25C11.5858 11.25 11.25 11.5858 11.25 12C11.25 12.4142 11.5858 12.75 12 12.75ZM10.25 12C10.25 12.4142 9.91421 12.75 9.5 12.75C9.08579 12.75 8.75 12.4142 8.75 12C8.75 11.5858 9.08579 11.25 9.5 11.25C9.91421 11.25 10.25 11.5858 10.25 12ZM14.5 12.75C14.9142 12.75 15.25 12.4142 15.25 12C15.25 11.5858 14.9142 11.25 14.5 11.25C14.0858 11.25 13.75 11.5858 13.75 12C13.75 12.4142 14.0858 12.75 14.5 12.75ZM12.75 14.5C12.75 14.9142 12.4142 15.25 12 15.25C11.5858 15.25 11.25 14.9142 11.25 14.5C11.25 14.0858 11.5858 13.75 12 13.75C12.4142 13.75 12.75 14.0858 12.75 14.5ZM12 10.25C12.4142 10.25 12.75 9.91422 12.75 9.5C12.75 9.08579 12.4142 8.75 12 8.75C11.5858 8.75 11.25 9.08579 11.25 9.5C11.25 9.91422 11.5858 10.25 12 10.25ZM3.23755 18.2981C1.96835 17.0289 1.96835 14.9711 3.23755 13.7019L13.702 3.23744C14.9712 1.96823 17.029 1.96824 18.2982 3.23744L20.7627 5.70191C22.0319 6.97111 22.0319 9.0289 20.7627 10.2981L10.2982 20.7626C9.029 22.0318 6.97122 22.0318 5.70202 20.7626L3.23755 18.2981ZM4.29821 14.7626C3.61479 15.446 3.61479 16.554 4.29821 17.2374L6.76268 19.7019C7.44609 20.3853 8.55413 20.3853 9.23755 19.7019L10.9393 18.0002L5.99993 13.0608L4.29821 14.7626ZM16.9393 12.0002L11.9999 7.06084L7.06059 12.0002L11.9999 16.9395L16.9393 12.0002ZM17.9999 10.9395L19.702 9.23744C20.3854 8.55403 20.3854 7.44598 19.702 6.76257L17.2375 4.2981C16.5541 3.61468 15.4461 3.61468 14.7627 4.2981L13.0606 6.00018L17.9999 10.9395ZM10.2322 5.29308L9.2373 4.29821C8.55388 3.6148 7.44585 3.6148 6.76243 4.29821L4.29796 6.76268C3.61455 7.4461 3.61455 8.55414 4.29796 9.23755L5.29283 10.2324L4.23217 11.2931L3.2373 10.2982C1.9681 9.02901 1.9681 6.97122 3.2373 5.70202L5.70177 3.23755C6.97097 1.96835 9.02876 1.96835 10.298 3.23755L11.2928 4.23242L10.2322 5.29308ZM12.707 19.768L13.7018 20.7627C14.971 22.0319 17.0288 22.0319 18.298 20.7627L20.7624 18.2982C22.0316 17.029 22.0316 14.9712 20.7624 13.702L19.7677 12.7073L18.707 13.768L19.7018 14.7627C20.3852 15.4461 20.3852 16.5541 19.7018 17.2376L17.2373 19.702C16.5539 20.3854 15.4458 20.3854 14.7624 19.702L13.7677 18.7073L12.707 19.768Z" fill="#F2F2F2"/>
</svg>
