<svg width="24" height="24" viewBox="0 0 24 24" fill="none" xmlns="http://www.w3.org/2000/svg">
<path d="M12 12.7501C12.4142 12.7501 12.75 12.4143 12.75 12.0001C12.75 11.5859 12.4142 11.2501 12 11.2501C11.5858 11.2501 11.25 11.5859 11.25 12.0001C11.25 12.4143 11.5858 12.7501 12 12.7501ZM10.25 12.0001C10.25 12.4143 9.91421 12.7501 9.5 12.7501C9.08579 12.7501 8.75 12.4143 8.75 12.0001C8.75 11.5859 9.08579 11.2501 9.5 11.2501C9.91421 11.2501 10.25 11.5859 10.25 12.0001ZM14.5 12.7501C14.9142 12.7501 15.25 12.4143 15.25 12.0001C15.25 11.5859 14.9142 11.2501 14.5 11.2501C14.0858 11.2501 13.75 11.5859 13.75 12.0001C13.75 12.4143 14.0858 12.7501 14.5 12.7501ZM12.75 14.5001C12.75 14.9143 12.4142 15.2501 12 15.2501C11.5858 15.2501 11.25 14.9143 11.25 14.5001C11.25 14.0859 11.5858 13.7501 12 13.7501C12.4142 13.7501 12.75 14.0859 12.75 14.5001ZM12 10.2501C12.4142 10.2501 12.75 9.91433 12.75 9.50011C12.75 9.0859 12.4142 8.75011 12 8.75011C11.5858 8.75011 11.25 9.0859 11.25 9.50011C11.25 9.91433 11.5858 10.2501 12 10.2501ZM3.23755 18.2982C1.96835 17.029 1.96835 14.9712 3.23755 13.702L13.702 3.23755C14.9712 1.96834 17.029 1.96835 18.2982 3.23755L20.7627 5.70201C22.0319 6.97122 22.0319 9.029 20.7627 10.2982L10.2982 20.7627C9.029 22.0319 6.97122 22.0319 5.70202 20.7627L3.23755 18.2982ZM4.29821 14.7627C3.61479 15.4461 3.61479 16.5541 4.29821 17.2375L6.76268 19.702C7.44609 20.3854 8.55413 20.3854 9.23755 19.702L10.9393 18.0003L5.99993 13.061L4.29821 14.7627ZM16.9393 12.0003L11.9999 7.06095L7.06059 12.0003L11.9999 16.9396L16.9393 12.0003ZM17.9999 10.9396L19.702 9.23755C20.3854 8.55413 20.3854 7.44609 19.702 6.76267L17.2375 4.29821C16.5541 3.61479 15.4461 3.61479 14.7627 4.29821L13.0606 6.00029L17.9999 10.9396ZM10.2322 5.29318L9.2373 4.29832C8.55388 3.6149 7.44585 3.6149 6.76243 4.29832L4.29796 6.76279C3.61455 7.4462 3.61455 8.55424 4.29796 9.23766L5.29283 10.2325L4.23217 11.2932L3.2373 10.2983C1.9681 9.02912 1.9681 6.97133 3.2373 5.70213L5.70177 3.23766C6.97097 1.96846 9.02876 1.96845 10.298 3.23766L11.2928 4.23252L10.2322 5.29318ZM12.707 19.7681L13.7018 20.7628C14.971 22.032 17.0288 22.032 18.298 20.7628L20.7624 18.2983C22.0316 17.0291 22.0316 14.9713 20.7624 13.7021L19.7677 12.7074L18.707 13.7681L19.7018 14.7628C20.3852 15.4462 20.3852 16.5542 19.7018 17.2377L17.2373 19.7021C16.5539 20.3855 15.4458 20.3855 14.7624 19.7021L13.7677 18.7074L12.707 19.7681Z" fill="#2D9CDB"/>
</svg>
